<svg width="15" height="15" viewBox="0 0 15 15" fill="none" xmlns="http://www.w3.org/2000/svg">
<path d="M3.80667 11.8064C3.62768 11.6274 3.61276 11.3464 3.76192 11.1505L3.80667 11.0993L10.8777 4.02828C11.0729 3.83302 11.3895 3.83302 11.5847 4.02828C11.7637 4.20727 11.7787 4.4882 11.6295 4.68418L11.5847 4.73538L4.51377 11.8064C4.31851 12.0016 4.00193 12.0016 3.80667 11.8064Z" fill="white" stroke="white"/>
<path d="M5.54037 4.89389C5.26423 4.89449 5.0399 4.67112 5.0393 4.39498C5.03876 4.14394 5.22332 3.93572 5.46434 3.89949L5.53822 3.89391L11.2299 3.88165C11.4817 3.88111 11.6902 4.06673 11.7257 4.30857L11.731 4.38268L11.7192 10.0748C11.7186 10.351 11.4943 10.5744 11.2181 10.5738C10.9671 10.5733 10.7597 10.3878 10.7245 10.1466L10.7192 10.0728L10.7296 4.8827L5.54037 4.89389Z" fill="white" stroke="white"/>
</svg>
