<svg width="20" height="26" viewBox="0 0 20 26" fill="none" xmlns="http://www.w3.org/2000/svg">
<path d="M7.4665 19.8092H12.534C12.699 18.321 13.4652 17.0927 14.709 15.7518C14.8502 15.6007 15.749 14.6783 15.8552 14.5471C16.7381 13.4546 17.2915 12.1373 17.4516 10.7469C17.6118 9.35652 17.3722 7.94961 16.7606 6.68818C16.1489 5.42676 15.1899 4.36212 13.9941 3.61687C12.7984 2.87161 11.4144 2.47606 10.0016 2.47577C8.58882 2.47547 7.20468 2.87043 6.00858 3.61518C4.81248 4.35992 3.85307 5.42416 3.24083 6.68533C2.62859 7.94649 2.38843 9.3533 2.54799 10.7437C2.70756 12.1342 3.26037 13.4517 4.14275 14.5446C4.25025 14.6771 5.1515 15.6007 5.29025 15.7506C6.53525 17.0927 7.3015 18.321 7.4665 19.8092ZM12.5002 22.2855H7.50025V23.5237H12.5002V22.2855ZM2.19275 16.0948C1.01549 14.6378 0.27769 12.8811 0.0643354 11.027C-0.149019 9.17282 0.170755 7.2967 0.986822 5.61471C1.80289 3.93272 3.08205 2.51329 4.67695 1.51994C6.27185 0.526577 8.11761 -0.000298695 10.0016 1.27039e-07C11.8856 0.000298949 13.7312 0.527761 15.3258 1.52162C16.9203 2.51549 18.199 3.93532 19.0146 5.61757C19.8301 7.29982 20.1493 9.17604 19.9353 11.0301C19.7213 12.8842 18.983 14.6407 17.8052 16.0972C17.0302 17.0531 15.0002 18.5711 15.0002 20.4283V23.5237C15.0002 24.1805 14.7369 24.8103 14.268 25.2747C13.7992 25.7391 13.1633 26 12.5002 26H7.50025C6.83721 26 6.20133 25.7391 5.73249 25.2747C5.26364 24.8103 5.00025 24.1805 5.00025 23.5237V20.4283C5.00025 18.5711 2.969 17.0531 2.19275 16.0948ZM11.2502 9.90895H14.3752L8.75025 17.3379V12.3853H5.62525L11.2502 4.95138V9.91018V9.90895Z" fill="#FF7425"/>
</svg>
