<svg width="78" height="72" viewBox="0 0 78 72" fill="none" xmlns="http://www.w3.org/2000/svg">
<path d="M42.9997 36H7.99973V1C27.3275 1 42.9997 16.7111 42.9997 36Z" fill="#FF7425"/>
<path d="M7.99969 36H42.9997V71C23.6719 71 7.99969 55.3278 7.99969 36Z" fill="#FF7425"/>
<path d="M77.9997 36H42.9997V71C62.3275 71 77.9997 55.3278 77.9997 36Z" fill="#FF7425"/>
<path d="M42.9997 36H77.9997V1C58.6719 1 42.9997 16.7111 42.9997 36Z" fill="#FF7425"/>
<path d="M36 36C36 16.7111 20.3278 1 1 1V36" stroke="white"/>
<path d="M1 36C1 55.3278 16.6722 71 36 71" stroke="white"/>
<path d="M71 36C71 55.3278 55.3278 71 36 71" stroke="white"/>
<path d="M36 36C36 16.7111 51.6722 1 71 1V36" stroke="white"/>
</svg>
