<svg width="74" height="70" viewBox="0 0 74 70" fill="none" xmlns="http://www.w3.org/2000/svg">
<path d="M69.8673 45.2736C74.0262 49.4325 74.0262 56.1908 69.8673 60.3497C65.7084 64.5086 58.9502 64.5086 54.7913 60.3497C50.6324 56.1908 43.8741 56.1908 39.7152 60.3497C35.5563 64.5086 28.7981 64.5086 24.6392 60.3497C20.4803 56.1908 20.4803 49.4325 24.6392 45.2736C28.7981 41.1147 35.5563 41.1147 39.7152 45.2736C43.8741 49.4325 50.6324 49.4325 54.7913 45.2736C58.9502 41.1147 65.7084 41.1147 69.8673 45.2736Z" stroke="white" stroke-opacity="0.15" stroke-miterlimit="10"/>
<path d="M21.9199 8.88325C23.4395 3.20475 29.278 -0.154293 34.9565 1.36531C40.635 2.88491 43.9941 8.72322 42.4745 14.4017C40.9549 20.0802 44.314 25.9189 49.9925 27.4385C55.671 28.9581 59.0302 34.7964 57.5106 40.4749C55.991 46.1535 50.1525 49.5125 44.474 47.9929C38.7955 46.4733 35.4364 40.635 36.956 34.9565C38.4756 29.278 35.1164 23.4397 29.4379 21.9201C23.7994 20.4005 20.4003 14.5618 21.9199 8.88325Z" stroke="white" stroke-opacity="0.15" stroke-miterlimit="10"/>
<path d="M14.4019 68.5875C8.72336 70.1071 2.8849 66.7481 1.3653 61.0696C-0.154298 55.391 3.20481 49.5527 8.88332 48.0331C14.5618 46.5135 17.9209 40.6748 16.4013 34.9963C14.8817 29.3178 18.2408 23.4795 23.9194 21.9599C29.5979 20.4403 35.4363 23.7994 36.9559 29.4779C38.4755 35.1564 35.1164 40.9951 29.4379 42.5147C23.7594 44.0343 20.4003 49.8726 21.9199 55.5511C23.4795 61.2296 20.0804 67.0679 14.4019 68.5875Z" stroke="white" stroke-opacity="0.15" stroke-miterlimit="10"/>
</svg>
