<svg width="109" height="105" viewBox="0 0 109 105" fill="none" xmlns="http://www.w3.org/2000/svg">
<path d="M100 80C100 93.8333 88.8333 105 75 105C61.1667 105 50 93.8333 50 80C50 66.1667 38.8333 55 25 55C11.1667 55 0 43.8333 0 30C0 16.1667 11.1667 5 25 5C38.8333 5 50 16.1667 50 30C50 43.8333 61.1667 55 75 55C88.8333 55 100 66.1667 100 80Z" fill="#FF7425"/>
<path d="M108 76C108 89.8333 96.8333 101 83 101C69.1667 101 58 89.8333 58 76C58 62.1667 46.8333 51 33 51C19.1667 51 8 39.8333 8 26C8 12.1667 19.1667 1 33 1C46.8333 1 58 12.1667 58 26C58 39.8333 69.1667 51 83 51C96.8333 51 108 62.1667 108 76Z" stroke="white" stroke-miterlimit="10"/>
</svg>
